<svg width="39" height="42" viewBox="0 0 39 42" fill="none" xmlns="http://www.w3.org/2000/svg">
<rect width="39" height="42" fill="white"/>
<path d="M22.0853 21L29.3216 13.207C29.665 12.8378 29.8582 12.3368 29.8586 11.8142C29.8591 11.2916 29.6667 10.7903 29.3239 10.4204C28.9811 10.0506 28.5158 9.84253 28.0306 9.84207C27.5453 9.84161 27.0798 10.0488 26.7363 10.418L19.5 18.2109L12.2637 10.418C11.9202 10.0481 11.4544 9.84033 10.9687 9.84033C10.4831 9.84033 10.0173 10.0481 9.67383 10.418C9.33039 10.7878 9.13745 11.2894 9.13745 11.8125C9.13745 12.3355 9.33039 12.8372 9.67383 13.207L16.9102 21L9.67383 28.793C9.33039 29.1628 9.13745 29.6644 9.13745 30.1875C9.13745 30.7105 9.33039 31.2122 9.67383 31.582C10.0173 31.9519 10.4831 32.1597 10.9687 32.1597C11.4544 32.1597 11.9202 31.9519 12.2637 31.582L19.5 23.7891L26.7363 31.582C27.0798 31.9519 27.5456 32.1597 28.0312 32.1597C28.5169 32.1597 28.9827 31.9519 29.3262 31.582C29.6696 31.2122 29.8625 30.7105 29.8625 30.1875C29.8625 29.6644 29.6696 29.1628 29.3262 28.793L22.0853 21Z" fill="#63676F"/>
</svg>
