<svg width="100" height="100" viewBox="0 0 100 100" fill="none" xmlns="http://www.w3.org/2000/svg">
<path d="M25.407 49.438L25.7199 63.9355C26.0133 77.532 37.2675 88.7862 50.864 89.0796C64.4605 89.3731 75.2392 78.5944 74.9457 64.9979L74.4145 40.385C74.3847 39.3116 74.1183 38.2478 73.6343 37.2696C73.1503 36.2914 72.4607 35.4229 71.6147 34.7262C70.7687 34.0295 69.7872 33.5217 68.7403 33.2392C67.6934 32.9567 66.607 32.9063 65.5586 33.0918L65.5241 31.4946C65.4384 27.5222 62.1123 24.1961 58.1189 24.0894C57.4637 24.0753 56.7902 24.1631 56.1794 24.3137C55.5757 22.8293 54.5107 21.5625 53.1472 20.707C51.7837 19.8514 50.1966 19.4541 48.6284 19.5757C47.0602 19.6973 45.5971 20.3312 44.4627 21.3805C43.3284 22.4297 42.585 23.8367 42.3463 25.3864C41.283 25.1384 40.188 25.1282 39.1408 25.3564C38.0936 25.5846 37.1204 26.0455 36.292 26.7057C35.4635 27.3659 34.8006 28.2088 34.3513 29.1732C33.902 30.1376 33.6775 31.1993 33.6943 32.2813L33.9161 42.5606C32.8635 42.3242 31.7815 42.3227 30.7485 42.5562C29.7154 42.7896 28.7571 43.2521 27.9429 43.9102C27.1286 44.5684 26.4787 45.4057 26.0401 46.3617C25.6015 47.3177 25.3853 48.3685 25.407 49.438V49.438ZM31.2023 49.5836C31.1846 48.7645 31.8057 48.1435 32.6248 48.1611C33.4438 48.1788 34.0923 48.8273 34.11 49.6463L34.3911 62.6695C36.6933 62.7206 38.9205 63.6834 40.5836 65.3465C42.2466 67.0095 43.2094 69.2367 43.2605 71.539L49.035 71.6636C48.9729 68.8474 48.0916 66.075 46.4988 63.6852C44.906 61.2954 42.6708 59.3919 40.0665 58.2073L39.5096 32.4068C39.492 31.5877 40.113 30.9667 40.9321 30.9843C41.7512 31.002 42.3996 31.6505 42.4173 32.4695L42.8239 51.3081L48.5983 51.4327L48.0671 26.8198C48.0494 26.0007 48.6705 25.3796 49.4896 25.3973C50.3086 25.415 50.9571 26.0635 50.9748 26.8825L51.506 51.4954L57.2804 51.6201L56.8429 31.3482C56.8252 30.5291 57.4463 29.9081 58.2654 29.9257C59.0844 29.9434 59.7329 30.5919 59.7506 31.4109L60.2508 54.5905L66.0253 54.7151L65.7124 40.2177C65.6947 39.3986 66.3158 38.7775 67.1348 38.7952C67.9539 38.8129 68.6024 39.4614 68.62 40.2804L69.1713 64.8733C69.3958 75.2754 61.1615 83.5097 50.7594 83.2852C40.3573 83.0607 31.7598 74.4631 31.5352 64.061L31.2023 49.5836V49.5836ZM82.6093 42.6495C89.5333 49.5736 89.7711 60.59 83.1396 67.2215L80.0018 64.0837C84.9704 59.1151 84.7919 50.8425 79.6041 45.6547L82.6093 42.6495ZM17.6144 65.8073C10.6903 58.8832 10.4526 47.8668 17.084 41.2353L20.2218 44.3731C15.2532 49.3417 15.4318 57.6143 20.6196 62.8021L17.6144 65.8073Z" fill="#546384"/>
</svg>
