<svg width="374" height="283" viewBox="0 0 374 283" fill="none" xmlns="http://www.w3.org/2000/svg">
<g filter="url(#filter0_d_60_7)">
<g filter="url(#filter1_i_60_7)">
<path d="M114.462 56.231C114.462 87.2865 89.2865 112.462 58.231 112.462C27.1755 112.462 2 87.2865 2 56.231C2 25.1755 27.1755 0 58.231 0C89.2865 0 114.462 25.1755 114.462 56.231Z" fill="#E8E9E8"/>
</g>
<path d="M106.962 56.231C106.962 83.1444 85.1444 104.962 58.231 104.962C31.3176 104.962 9.5 83.1444 9.5 56.231C9.5 29.3176 31.3176 7.5 58.231 7.5C85.1444 7.5 106.962 29.3176 106.962 56.231Z" stroke="#63676F" stroke-width="15"/>
<path d="M44.4019 55.9151L44.5778 64.0671C44.7429 71.7126 51.0712 78.0409 58.7166 78.2059C66.3621 78.3709 72.423 72.31 72.258 64.6645L71.9593 50.8245C71.9426 50.2209 71.7928 49.6227 71.5206 49.0726C71.2485 48.5226 70.8607 48.0342 70.385 47.6425C69.9092 47.2507 69.3573 46.9652 68.7687 46.8063C68.18 46.6474 67.5691 46.6191 66.9795 46.7234L66.9602 45.8253C66.9119 43.5915 65.0417 41.7213 62.7962 41.6613C62.4277 41.6533 62.049 41.7027 61.7055 41.7874C61.3661 40.9527 60.7672 40.2404 60.0005 39.7593C59.2338 39.2782 58.3413 39.0548 57.4595 39.1232C56.5777 39.1916 55.755 39.548 55.1171 40.138C54.4793 40.728 54.0613 41.5192 53.9271 42.3906C53.3291 42.2512 52.7134 42.2454 52.1246 42.3737C51.5357 42.502 50.9885 42.7612 50.5226 43.1324C50.0568 43.5037 49.684 43.9776 49.4314 44.5199C49.1787 45.0622 49.0525 45.6592 49.0619 46.2676L49.1867 52.0478C48.5948 51.9149 47.9864 51.9141 47.4055 52.0453C46.8246 52.1766 46.2857 52.4366 45.8278 52.8067C45.37 53.1768 45.0045 53.6476 44.7579 54.1852C44.5113 54.7228 44.3897 55.3136 44.4019 55.9151V55.9151ZM47.6607 55.9969C47.6507 55.5363 48 55.1871 48.4605 55.197C48.9211 55.207 49.2857 55.5716 49.2957 56.0322L49.4537 63.3552C50.7483 63.384 52.0007 63.9254 52.9358 64.8605C53.871 65.7957 54.4124 67.0481 54.4411 68.3426L57.6881 68.4127C57.6532 66.8292 57.1577 65.2702 56.262 63.9264C55.3664 62.5826 54.1095 61.5122 52.6451 60.8461L52.332 46.3382C52.322 45.8777 52.6713 45.5284 53.1318 45.5384C53.5924 45.5483 53.957 45.9129 53.967 46.3735L54.1956 56.9666L57.4426 57.0367L57.1439 43.1966C57.134 42.736 57.4832 42.3868 57.9438 42.3967C58.4043 42.4067 58.769 42.7713 58.7789 43.2319L59.0776 57.072L62.3246 57.142L62.0786 45.743C62.0687 45.2824 62.4179 44.9332 62.8785 44.9431C63.3391 44.953 63.7037 45.3177 63.7136 45.7782L63.995 58.8123L67.242 58.8824L67.066 50.7304C67.0561 50.2698 67.4053 49.9205 67.8659 49.9305C68.3265 49.9404 68.6911 50.3051 68.701 50.7656L69.011 64.5945C69.1373 70.4437 64.507 75.0739 58.6578 74.9476C52.8086 74.8214 47.9741 69.9869 47.8479 64.1377L47.6607 55.9969V55.9969ZM76.5673 52.0978C80.4608 55.9913 80.5945 62.1859 76.8655 65.9149L75.1011 64.1505C77.895 61.3566 77.7946 56.7048 74.8775 53.7877L76.5673 52.0978ZM40.02 65.1196C36.1266 61.2262 35.9929 55.0315 39.7218 51.3026L41.4862 53.067C38.6923 55.8609 38.7927 60.5126 41.7099 63.4298L40.02 65.1196Z" fill="#546384"/>
</g>
<g filter="url(#filter2_d_60_7)">
<g filter="url(#filter3_i_60_7)">
<circle cx="192.061" cy="219.863" r="56.231" fill="#E8E9E8"/>
</g>
<circle cx="192.061" cy="219.863" r="48.731" stroke="#63676F" stroke-width="15"/>
<g filter="url(#filter4_d_60_7)">
<path d="M191.149 199.62C190.227 199.623 189.321 199.87 188.515 200.337C187.709 200.805 187.03 201.478 186.54 202.293C185.729 201.796 184.806 201.529 183.865 201.521C180.87 201.521 178.402 204.097 178.402 207.225V214.175L174.589 219.286C172.264 222.426 172.421 226.934 174.932 229.919L179.256 235.029C180.45 236.448 181.921 237.586 183.569 238.364C185.218 239.143 187.007 239.545 188.816 239.544H198.433C205.452 239.544 211.179 233.565 211.179 226.236V209.126C211.179 205.998 208.712 203.422 205.716 203.422C204.742 203.422 203.839 203.719 203.041 204.194C202.552 203.379 201.872 202.706 201.067 202.239C200.261 201.771 199.355 201.524 198.433 201.521C197.459 201.521 196.555 201.818 195.758 202.293C195.268 201.478 194.589 200.805 193.783 200.337C192.977 199.87 192.071 199.623 191.149 199.62V199.62ZM191.149 203.422C192.18 203.422 192.97 204.247 192.97 205.324V211.027H196.612V207.225C196.612 206.149 197.402 205.324 198.433 205.324C199.463 205.324 200.254 206.149 200.254 207.225V211.027H203.895V209.126C203.895 208.05 204.686 207.225 205.716 207.225C206.747 207.225 207.537 208.05 207.537 209.126V226.236C207.537 231.508 203.482 235.742 198.433 235.742H188.816C187.525 235.747 186.247 235.463 185.069 234.909C183.891 234.356 182.841 233.545 181.988 232.533L177.663 227.365C176.998 226.587 176.617 225.589 176.585 224.546C176.554 223.503 176.875 222.482 177.492 221.662L178.402 220.413V222.434H182.044V207.225C182.044 206.149 182.835 205.324 183.865 205.324C184.896 205.324 185.686 206.149 185.686 207.225V211.027H189.328V205.324C189.328 204.247 190.118 203.422 191.149 203.422Z" fill="#546384"/>
</g>
</g>
<g filter="url(#filter5_d_60_7)">
<g filter="url(#filter6_i_60_7)">
<circle cx="315.769" cy="56.231" r="56.231" fill="#E8E9E8"/>
</g>
<circle cx="315.769" cy="56.231" r="48.731" stroke="#63676F" stroke-width="15"/>
<g clip-path="url(#clip0_60_7)">
<path d="M305.923 48.5852C305.207 48.9068 304.548 49.3418 303.969 49.8749L303.935 49.8904L301.633 52.0287C300.313 53.2452 299.421 54.8775 299.088 56.6863C298.755 58.4951 298.997 60.3854 299.78 62.0799L302.545 68.059C304.564 72.4245 309.622 74.4086 313.803 72.4752L324.546 67.507C325.883 66.9262 326.788 65.5247 326.683 63.9418C326.614 62.937 326.152 62.0606 325.471 61.4095C325.989 60.7201 326.245 59.8556 326.194 58.9706C326.158 58.4719 326.025 57.9825 325.803 57.5317C325.58 57.0809 325.273 56.6781 324.899 56.3473L329.136 54.3883C330.92 53.5633 331.68 51.3493 330.818 49.4865C329.957 47.6237 327.778 46.7689 325.994 47.5939L324.333 48.3617L324.708 48.0165C326.165 46.687 326.255 44.3101 324.913 42.7669C323.572 41.2238 321.256 41.0533 319.799 42.3829L312.006 49.5523C311.815 49.3584 311.609 49.1805 311.391 49.0201C310.411 48.3241 308.819 47.7615 306.92 48.2517C306.569 48.3455 306.226 48.4492 305.923 48.5852V48.5852ZM321.865 44.0046C322.311 43.8577 322.813 43.9964 323.157 44.3955C323.617 44.9236 323.564 45.7 323.066 46.1561L316.724 51.9231L317.685 53.025L318.127 53.9808L327.041 49.8587C327.655 49.5748 328.353 49.8486 328.649 50.4896C328.946 51.1305 328.702 51.8396 328.088 52.1235L320.937 55.4306L317.55 55.5796C317.073 55.5933 316.608 55.7062 316.181 55.9114L313.462 51.5416L321.441 44.2433C321.564 44.1331 321.708 44.0518 321.865 44.0046ZM306.969 50.9358C307.176 50.84 307.392 50.7402 307.596 50.6885C308.859 50.3628 309.554 50.6862 310.067 51.0497C310.579 51.4148 310.763 51.7586 310.763 51.7586L310.796 51.8299L315.083 58.6954C315.109 58.7274 315.136 58.7579 315.165 58.7868C315.263 58.911 315.336 59.0531 315.38 59.2049C315.424 59.3567 315.438 59.5151 315.422 59.6706C315.406 59.8262 315.36 59.9758 315.286 60.1107C315.212 60.2456 315.112 60.363 314.992 60.456C314.681 60.7068 314.481 60.7404 314.248 60.7148C314.014 60.6881 313.681 60.5575 313.279 60.1318L309.387 55.2733C309.268 55.1277 309.12 55.0104 308.954 54.9303C308.787 54.8501 308.607 54.8091 308.425 54.8104C308.244 54.8117 308.066 54.8552 307.906 54.9377C307.746 55.0202 307.607 55.1396 307.5 55.2868L306.178 57.1433C306.086 57.2728 306.021 57.4206 305.986 57.5781C305.951 57.7357 305.947 57.8998 305.973 58.0612C306 58.2225 306.058 58.3778 306.143 58.5182C306.227 58.6585 306.338 58.7811 306.467 58.879C306.596 58.9774 306.742 59.0493 306.896 59.0905C307.05 59.1318 307.21 59.1415 307.366 59.1193C307.522 59.097 307.671 59.0432 307.804 58.9609C307.938 58.8785 308.054 58.7693 308.145 58.6395L308.54 58.0705L311.523 61.7604C311.548 61.7919 311.576 61.8221 311.604 61.8507C312.302 62.5917 313.128 63.0637 314.03 63.1785C314.767 63.272 315.495 63.1016 316.124 62.7255C315.929 63.2349 315.847 63.7858 315.883 64.3393C315.929 65.0627 316.18 65.7632 316.607 66.353C317.033 66.9429 317.615 67.396 318.28 67.6556L312.755 70.2104C309.748 71.6011 306.166 70.1962 304.714 67.056L301.949 61.0757C300.797 58.5844 301.335 55.6783 303.275 53.8908L305.593 51.7876C305.781 51.6145 306.351 51.2217 306.969 50.9358V50.9358ZM317.449 58.117C317.535 58.0935 317.605 58.0448 317.702 58.0439L322.521 57.8773C323.198 57.8529 323.756 58.3469 323.802 59.0445C323.847 59.7437 323.35 60.3172 322.673 60.3405L317.87 60.5433C317.801 60.5478 317.751 60.5066 317.686 60.4996C317.859 59.7084 317.775 58.8724 317.449 58.117V58.117ZM318.931 63.1017C319.074 63.0355 319.233 62.9783 319.404 62.9694L321.139 62.8971L322.841 62.8399L322.993 62.8135C323.671 62.789 324.245 63.3193 324.291 64.0168C324.31 64.2532 324.261 64.4878 324.15 64.6916C324.04 64.8954 323.873 65.0594 323.669 65.1634L323.635 65.1795C323.488 65.2555 323.327 65.3004 323.161 65.3118L319.556 65.4326C319.396 65.4401 319.236 65.4147 319.084 65.358C318.932 65.3014 318.792 65.2145 318.671 65.1025C318.55 64.9905 318.451 64.8555 318.38 64.7056C318.31 64.5557 318.268 64.3937 318.258 64.2292C318.248 64.0695 318.269 63.9103 318.32 63.7612C318.371 63.6121 318.452 63.4762 318.556 63.3616C318.661 63.2485 318.789 63.16 318.931 63.1017V63.1017Z" fill="#546384"/>
</g>
</g>
<path d="M127.926 165.999C129.03 166.04 129.958 165.178 129.999 164.074L130.665 146.086C130.706 144.983 129.844 144.055 128.74 144.014C127.636 143.973 126.708 144.834 126.668 145.938L126.075 161.927L110.086 161.335C108.983 161.294 108.055 162.156 108.014 163.26C107.973 164.364 108.834 165.292 109.938 165.332L127.926 165.999ZM87.5344 123.361L126.534 165.361L129.466 162.639L90.4656 120.639L87.5344 123.361Z" fill="#63676F"/>
<path d="M161.586 57.5858C160.805 58.3668 160.805 59.6332 161.586 60.4142L174.314 73.1421C175.095 73.9232 176.361 73.9232 177.142 73.1421C177.923 72.3611 177.923 71.0948 177.142 70.3137L165.828 59L177.142 47.6863C177.923 46.9052 177.923 45.6389 177.142 44.8579C176.361 44.0768 175.095 44.0768 174.314 44.8579L161.586 57.5858ZM220.315 57L163 57V61L220.315 61V57Z" fill="#63676F"/>
<path d="M278.447 124.839C278.358 123.738 277.394 122.918 276.293 123.006L258.351 124.452C257.25 124.541 256.429 125.505 256.518 126.606C256.607 127.707 257.571 128.528 258.672 128.439L274.621 127.154L275.906 143.102C275.994 144.203 276.959 145.024 278.06 144.935C279.161 144.846 279.981 143.882 279.893 142.781L278.447 124.839ZM244.523 165.613L277.977 126.296L274.93 123.704L241.477 163.021L244.523 165.613Z" fill="#63676F"/>
<path d="M169.444 40V29.92H173.441C174.123 29.92 174.68 30.0577 175.114 30.333C175.553 30.6037 175.877 30.9513 176.087 31.376C176.302 31.8007 176.409 32.2393 176.409 32.692C176.409 33.2473 176.276 33.7187 176.01 34.106C175.749 34.4933 175.392 34.7547 174.939 34.89V34.54C175.574 34.6847 176.055 34.9857 176.381 35.443C176.713 35.9003 176.878 36.4207 176.878 37.004C176.878 37.6013 176.764 38.124 176.535 38.572C176.307 39.02 175.966 39.37 175.513 39.622C175.065 39.874 174.51 40 173.847 40H169.444ZM171.152 38.411H173.637C173.931 38.411 174.195 38.3527 174.428 38.236C174.662 38.1147 174.844 37.9467 174.974 37.732C175.11 37.5127 175.177 37.2537 175.177 36.955C175.177 36.6843 175.119 36.4417 175.002 36.227C174.886 36.0123 174.715 35.842 174.491 35.716C174.267 35.5853 173.999 35.52 173.686 35.52H171.152V38.411ZM171.152 33.945H173.42C173.663 33.945 173.88 33.8983 174.071 33.805C174.263 33.7117 174.414 33.574 174.526 33.392C174.638 33.21 174.694 32.986 174.694 32.72C174.694 32.37 174.582 32.0783 174.358 31.845C174.134 31.6117 173.822 31.495 173.42 31.495H171.152V33.945ZM178.976 40V29.92H185.486V31.502H180.663V33.987H184.646V35.569H180.663V38.418H185.486V40H178.976ZM187.166 40L190.344 29.92H192.815L195.993 40H194.257L191.373 30.956H191.751L188.902 40H187.166ZM188.937 37.816V36.241H194.229V37.816H188.937ZM199.546 40V31.502H196.284V29.92H204.495V31.502H201.233V40H199.546ZM210.046 40.21C209.308 40.21 208.643 40.0817 208.051 39.825C207.463 39.5683 206.977 39.202 206.595 38.726C206.217 38.2453 205.976 37.676 205.874 37.018L207.624 36.752C207.773 37.3493 208.079 37.8113 208.541 38.138C209.007 38.4647 209.544 38.628 210.151 38.628C210.51 38.628 210.848 38.572 211.166 38.46C211.483 38.348 211.74 38.1847 211.936 37.97C212.136 37.7553 212.237 37.4917 212.237 37.179C212.237 37.039 212.213 36.9107 212.167 36.794C212.12 36.6727 212.05 36.5653 211.957 36.472C211.868 36.3787 211.751 36.2947 211.607 36.22C211.467 36.1407 211.303 36.073 211.117 36.017L208.513 35.247C208.289 35.1817 208.046 35.0953 207.785 34.988C207.528 34.876 207.283 34.7243 207.05 34.533C206.821 34.337 206.632 34.0897 206.483 33.791C206.338 33.4877 206.266 33.1143 206.266 32.671C206.266 32.0223 206.429 31.4787 206.756 31.04C207.087 30.5967 207.53 30.2653 208.086 30.046C208.646 29.8267 209.266 29.7193 209.948 29.724C210.638 29.7287 211.254 29.8477 211.796 30.081C212.337 30.3097 212.79 30.6433 213.154 31.082C213.518 31.5207 213.774 32.0503 213.924 32.671L212.111 32.986C212.036 32.6313 211.891 32.3303 211.677 32.083C211.467 31.831 211.208 31.6397 210.9 31.509C210.596 31.3783 210.272 31.3083 209.927 31.299C209.591 31.2943 209.278 31.3457 208.989 31.453C208.704 31.5557 208.473 31.705 208.296 31.901C208.123 32.097 208.037 32.3257 208.037 32.587C208.037 32.8343 208.111 33.0373 208.261 33.196C208.41 33.35 208.594 33.4737 208.814 33.567C209.038 33.6557 209.264 33.7303 209.493 33.791L211.299 34.295C211.546 34.3603 211.824 34.449 212.132 34.561C212.44 34.673 212.736 34.8293 213.021 35.03C213.305 35.2307 213.539 35.4943 213.721 35.821C213.907 36.1477 214.001 36.563 214.001 37.067C214.001 37.5897 213.891 38.0493 213.672 38.446C213.457 38.838 213.165 39.1647 212.797 39.426C212.428 39.6873 212.006 39.8833 211.53 40.014C211.058 40.1447 210.564 40.21 210.046 40.21Z" fill="#63676F"/>
<path d="M267.107 181.732L259.429 175.2L262.019 172.156C262.461 171.637 262.927 171.301 263.418 171.149C263.908 170.99 264.383 170.969 264.843 171.084C265.305 171.195 265.709 171.398 266.054 171.691C266.477 172.051 266.749 172.458 266.872 172.911C266.998 173.361 266.965 173.803 266.775 174.235L266.509 174.008C267.03 173.619 267.571 173.448 268.131 173.495C268.694 173.539 269.198 173.75 269.642 174.128C270.097 174.515 270.421 174.941 270.614 175.405C270.807 175.87 270.853 176.356 270.751 176.864C270.653 177.369 270.389 177.873 269.96 178.378L267.107 181.732ZM267.003 179.401L268.613 177.508C268.804 177.284 268.93 177.046 268.993 176.793C269.051 176.536 269.041 176.289 268.963 176.05C268.883 175.805 268.73 175.585 268.502 175.392C268.296 175.217 268.073 175.104 267.834 175.054C267.595 175.003 267.355 175.023 267.114 175.112C266.869 175.198 266.646 175.36 266.443 175.598L264.801 177.528L267.003 179.401ZM263.602 176.507L265.071 174.78C265.228 174.595 265.334 174.399 265.386 174.193C265.439 173.987 265.433 173.782 265.367 173.579C265.301 173.376 265.166 173.188 264.964 173.016C264.697 172.789 264.402 172.685 264.08 172.705C263.757 172.724 263.465 172.886 263.205 173.192L261.736 174.92L263.602 176.507ZM273.283 174.472L265.606 167.94L269.824 162.981L271.029 164.007L267.904 167.68L269.797 169.29L272.377 166.257L273.582 167.282L271.001 170.315L273.171 172.162L276.297 168.488L277.502 169.513L273.283 174.472ZM278.59 168.234L272.972 159.282L274.573 157.4L284.31 161.511L283.185 162.833L274.428 159.169L274.673 158.881L279.715 166.912L278.59 168.234ZM278.074 165.47L276.874 164.449L280.304 160.419L281.503 161.439L278.074 165.47ZM286.612 158.804L280.14 153.298L278.026 155.782L276.821 154.757L282.142 148.503L283.347 149.528L281.233 152.013L287.706 157.519L286.612 158.804ZM293.576 150.944C293.098 151.505 292.569 151.929 291.99 152.214C291.413 152.495 290.82 152.627 290.209 152.611C289.598 152.587 289.009 152.401 288.441 152.053L289.372 150.548C289.924 150.821 290.474 150.888 291.022 150.747C291.573 150.604 292.046 150.301 292.439 149.839C292.672 149.565 292.848 149.271 292.969 148.957C293.089 148.642 293.131 148.341 293.094 148.053C293.061 147.761 292.925 147.513 292.687 147.311C292.58 147.22 292.467 147.155 292.348 147.115C292.226 147.072 292.098 147.055 291.967 147.066C291.838 147.073 291.699 147.107 291.548 147.169C291.397 147.224 291.24 147.305 291.076 147.411L288.802 148.895C288.607 149.024 288.384 149.152 288.133 149.282C287.882 149.405 287.607 149.493 287.31 149.547C287.013 149.594 286.702 149.578 286.378 149.498C286.053 149.412 285.722 149.225 285.384 148.938C284.89 148.517 284.582 148.041 284.459 147.507C284.336 146.968 284.371 146.415 284.564 145.85C284.76 145.282 285.08 144.739 285.525 144.224C285.977 143.7 286.466 143.308 286.995 143.047C287.52 142.783 288.067 142.655 288.637 142.662C289.207 142.669 289.777 142.816 290.346 143.105L289.412 144.69C289.093 144.517 288.77 144.432 288.443 144.435C288.115 144.432 287.801 144.505 287.502 144.655C287.206 144.801 286.942 145.003 286.711 145.26C286.49 145.513 286.327 145.784 286.221 146.074C286.115 146.358 286.079 146.63 286.113 146.892C286.151 147.151 286.269 147.365 286.468 147.534C286.656 147.694 286.859 147.769 287.077 147.758C287.291 147.744 287.504 147.684 287.718 147.577C287.93 147.464 288.134 147.34 288.328 147.205L289.882 146.156C290.092 146.01 290.34 145.856 290.625 145.694C290.91 145.532 291.221 145.408 291.558 145.321C291.895 145.234 292.247 145.228 292.614 145.301C292.984 145.37 293.361 145.568 293.745 145.895C294.143 146.233 294.422 146.615 294.582 147.039C294.741 147.456 294.801 147.89 294.761 148.34C294.721 148.79 294.597 149.239 294.388 149.686C294.182 150.13 293.911 150.549 293.576 150.944Z" fill="#63676F"/>
<path d="M68.6636 148.475L76.05 141.616L78.7699 144.545C79.2335 145.044 79.5121 145.546 79.6056 146.052C79.7058 146.557 79.6717 147.032 79.5034 147.474C79.3383 147.921 79.0899 148.298 78.7582 148.606C78.3513 148.984 77.9154 149.207 77.4506 149.276C76.9889 149.348 76.5545 149.264 76.1473 149.024L76.4038 148.786C76.7296 149.35 76.8361 149.907 76.7233 150.457C76.6136 151.011 76.3451 151.487 75.9176 151.884C75.4799 152.29 75.0191 152.562 74.5352 152.699C74.0513 152.837 73.563 152.825 73.0704 152.665C72.5808 152.508 72.1106 152.187 71.6597 151.701L68.6636 148.475ZM70.9902 148.645L72.6812 150.466C72.8813 150.682 73.1034 150.835 73.3477 150.927C73.5954 151.015 73.8423 151.034 74.0885 150.984C74.3414 150.934 74.5772 150.807 74.796 150.604C74.9944 150.42 75.1325 150.212 75.2104 149.98C75.2883 149.749 75.2973 149.508 75.2372 149.258C75.1805 149.005 75.0458 148.764 74.833 148.535L73.1087 146.678L70.9902 148.645ZM74.2628 145.606L75.8061 147.268C75.9713 147.446 76.1531 147.573 76.3517 147.65C76.5503 147.727 76.7544 147.744 76.964 147.702C77.1735 147.661 77.3758 147.549 77.5707 147.368C77.8272 147.13 77.9647 146.85 77.9833 146.527C78.0018 146.204 77.8745 145.895 77.6014 145.601L76.0582 143.939L74.2628 145.606ZM75.1498 155.46L82.5363 148.601L86.9661 153.371L85.8068 154.448L82.5249 150.913L80.704 152.604L83.4143 155.523L82.255 156.6L79.5447 153.681L77.457 155.619L80.7389 159.154L79.5797 160.23L75.1498 155.46ZM80.7225 161.461L90.2714 156.931L91.9528 158.741L86.7289 167.929L85.5477 166.657L90.2125 158.39L90.4697 158.667L81.9038 162.733L80.7225 161.461ZM83.528 161.272L84.6821 160.201L88.2831 164.079L87.129 165.15L83.528 161.272ZM89.147 170.533L95.3742 164.751L93.1545 162.36L94.3138 161.284L99.9011 167.301L98.7418 168.377L96.5221 165.987L90.295 171.769L89.147 170.533ZM96.1375 178.37C95.6358 177.829 95.2773 177.255 95.0621 176.646C94.8501 176.04 94.7883 175.435 94.8767 174.831C94.9717 174.227 95.2253 173.663 95.6376 173.14L97.0234 174.242C96.6873 174.758 96.5567 175.296 96.6317 175.857C96.7099 176.421 96.9554 176.926 97.3682 177.37C97.6127 177.633 97.884 177.843 98.182 178C98.48 178.156 98.7743 178.233 99.065 178.23C99.3589 178.231 99.6204 178.125 99.8495 177.913C99.9521 177.817 100.03 177.713 100.084 177.599C100.141 177.483 100.172 177.358 100.177 177.226C100.185 177.098 100.167 176.955 100.124 176.798C100.086 176.642 100.025 176.476 99.9388 176.301L98.7311 173.869C98.6266 173.661 98.5247 173.424 98.4256 173.159C98.333 172.895 98.2774 172.612 98.2588 172.311C98.2469 172.01 98.2995 171.704 98.4167 171.391C98.5406 171.078 98.7649 170.771 99.0898 170.47C99.5651 170.028 100.075 169.778 100.618 169.719C101.169 169.66 101.713 169.759 102.252 170.017C102.794 170.278 103.295 170.66 103.755 171.162C104.221 171.672 104.553 172.204 104.751 172.76C104.951 173.312 105.015 173.871 104.941 174.436C104.867 175.001 104.654 175.55 104.301 176.081L102.836 174.967C103.045 174.671 103.167 174.36 103.203 174.035C103.244 173.709 103.208 173.389 103.095 173.075C102.984 172.764 102.814 172.478 102.586 172.219C102.361 171.969 102.111 171.775 101.835 171.636C101.566 171.498 101.3 171.43 101.035 171.433C100.774 171.44 100.548 171.532 100.356 171.71C100.175 171.879 100.077 172.071 100.063 172.289C100.051 172.503 100.086 172.722 100.167 172.947C100.254 173.171 100.354 173.388 100.465 173.597L101.325 175.263C101.445 175.489 101.569 175.752 101.696 176.054C101.824 176.356 101.911 176.68 101.958 177.025C102.004 177.37 101.97 177.72 101.854 178.076C101.742 178.435 101.501 178.786 101.132 179.129C100.749 179.485 100.337 179.717 99.8975 179.826C99.4642 179.936 99.0263 179.944 98.584 179.852C98.1416 179.76 97.7106 179.584 97.2909 179.324C96.8745 179.067 96.49 178.749 96.1375 178.37Z" fill="#63676F"/>
<defs>
<filter id="filter0_d_60_7" x="0" y="0" width="116.462" height="118.962" filterUnits="userSpaceOnUse" color-interpolation-filters="sRGB">
<feFlood flood-opacity="0" result="BackgroundImageFix"/>
<feColorMatrix in="SourceAlpha" type="matrix" values="0 0 0 0 0 0 0 0 0 0 0 0 0 0 0 0 0 0 127 0" result="hardAlpha"/>
<feOffset dy="4.5"/>
<feGaussianBlur stdDeviation="1"/>
<feComposite in2="hardAlpha" operator="out"/>
<feColorMatrix type="matrix" values="0 0 0 0 0.388235 0 0 0 0 0.403922 0 0 0 0 0.435294 0 0 0 1 0"/>
<feBlend mode="normal" in2="BackgroundImageFix" result="effect1_dropShadow_60_7"/>
<feBlend mode="normal" in="SourceGraphic" in2="effect1_dropShadow_60_7" result="shape"/>
</filter>
<filter id="filter1_i_60_7" x="-10" y="0" width="124.462" height="122.462" filterUnits="userSpaceOnUse" color-interpolation-filters="sRGB">
<feFlood flood-opacity="0" result="BackgroundImageFix"/>
<feBlend mode="normal" in="SourceGraphic" in2="BackgroundImageFix" result="shape"/>
<feColorMatrix in="SourceAlpha" type="matrix" values="0 0 0 0 0 0 0 0 0 0 0 0 0 0 0 0 0 0 127 0" result="hardAlpha"/>
<feMorphology radius="2" operator="erode" in="SourceAlpha" result="effect1_innerShadow_60_7"/>
<feOffset dx="-15" dy="10"/>
<feGaussianBlur stdDeviation="5"/>
<feComposite in2="hardAlpha" operator="arithmetic" k2="-1" k3="1"/>
<feColorMatrix type="matrix" values="0 0 0 0 0 0 0 0 0 0 0 0 0 0 0 0 0 0 0.4 0"/>
<feBlend mode="normal" in2="shape" result="effect1_innerShadow_60_7"/>
</filter>
<filter id="filter2_d_60_7" x="133.83" y="163.632" width="116.462" height="118.962" filterUnits="userSpaceOnUse" color-interpolation-filters="sRGB">
<feFlood flood-opacity="0" result="BackgroundImageFix"/>
<feColorMatrix in="SourceAlpha" type="matrix" values="0 0 0 0 0 0 0 0 0 0 0 0 0 0 0 0 0 0 127 0" result="hardAlpha"/>
<feOffset dy="4.5"/>
<feGaussianBlur stdDeviation="1"/>
<feComposite in2="hardAlpha" operator="out"/>
<feColorMatrix type="matrix" values="0 0 0 0 0.388235 0 0 0 0 0.403922 0 0 0 0 0.435294 0 0 0 1 0"/>
<feBlend mode="normal" in2="BackgroundImageFix" result="effect1_dropShadow_60_7"/>
<feBlend mode="normal" in="SourceGraphic" in2="effect1_dropShadow_60_7" result="shape"/>
</filter>
<filter id="filter3_i_60_7" x="123.83" y="163.632" width="124.462" height="122.462" filterUnits="userSpaceOnUse" color-interpolation-filters="sRGB">
<feFlood flood-opacity="0" result="BackgroundImageFix"/>
<feBlend mode="normal" in="SourceGraphic" in2="BackgroundImageFix" result="shape"/>
<feColorMatrix in="SourceAlpha" type="matrix" values="0 0 0 0 0 0 0 0 0 0 0 0 0 0 0 0 0 0 127 0" result="hardAlpha"/>
<feMorphology radius="2" operator="erode" in="SourceAlpha" result="effect1_innerShadow_60_7"/>
<feOffset dx="-15" dy="10"/>
<feGaussianBlur stdDeviation="5"/>
<feComposite in2="hardAlpha" operator="arithmetic" k2="-1" k3="1"/>
<feColorMatrix type="matrix" values="0 0 0 0 0 0 0 0 0 0 0 0 0 0 0 0 0 0 0.4 0"/>
<feBlend mode="normal" in2="shape" result="effect1_innerShadow_60_7"/>
</filter>
<filter id="filter4_d_60_7" x="168.942" y="199.62" width="46.2371" height="47.9241" filterUnits="userSpaceOnUse" color-interpolation-filters="sRGB">
<feFlood flood-opacity="0" result="BackgroundImageFix"/>
<feColorMatrix in="SourceAlpha" type="matrix" values="0 0 0 0 0 0 0 0 0 0 0 0 0 0 0 0 0 0 127 0" result="hardAlpha"/>
<feOffset dy="4"/>
<feGaussianBlur stdDeviation="2"/>
<feComposite in2="hardAlpha" operator="out"/>
<feColorMatrix type="matrix" values="0 0 0 0 0 0 0 0 0 0 0 0 0 0 0 0 0 0 0.25 0"/>
<feBlend mode="normal" in2="BackgroundImageFix" result="effect1_dropShadow_60_7"/>
<feBlend mode="normal" in="SourceGraphic" in2="effect1_dropShadow_60_7" result="shape"/>
</filter>
<filter id="filter5_d_60_7" x="257.538" y="0" width="116.462" height="118.962" filterUnits="userSpaceOnUse" color-interpolation-filters="sRGB">
<feFlood flood-opacity="0" result="BackgroundImageFix"/>
<feColorMatrix in="SourceAlpha" type="matrix" values="0 0 0 0 0 0 0 0 0 0 0 0 0 0 0 0 0 0 127 0" result="hardAlpha"/>
<feOffset dy="4.5"/>
<feGaussianBlur stdDeviation="1"/>
<feComposite in2="hardAlpha" operator="out"/>
<feColorMatrix type="matrix" values="0 0 0 0 0.388235 0 0 0 0 0.403922 0 0 0 0 0.435294 0 0 0 1 0"/>
<feBlend mode="normal" in2="BackgroundImageFix" result="effect1_dropShadow_60_7"/>
<feBlend mode="normal" in="SourceGraphic" in2="effect1_dropShadow_60_7" result="shape"/>
</filter>
<filter id="filter6_i_60_7" x="247.538" y="0" width="124.462" height="122.462" filterUnits="userSpaceOnUse" color-interpolation-filters="sRGB">
<feFlood flood-opacity="0" result="BackgroundImageFix"/>
<feBlend mode="normal" in="SourceGraphic" in2="BackgroundImageFix" result="shape"/>
<feColorMatrix in="SourceAlpha" type="matrix" values="0 0 0 0 0 0 0 0 0 0 0 0 0 0 0 0 0 0 127 0" result="hardAlpha"/>
<feMorphology radius="2" operator="erode" in="SourceAlpha" result="effect1_innerShadow_60_7"/>
<feOffset dx="-15" dy="10"/>
<feGaussianBlur stdDeviation="5"/>
<feComposite in2="hardAlpha" operator="arithmetic" k2="-1" k3="1"/>
<feColorMatrix type="matrix" values="0 0 0 0 0 0 0 0 0 0 0 0 0 0 0 0 0 0 0.4 0"/>
<feBlend mode="normal" in2="shape" result="effect1_innerShadow_60_7"/>
</filter>
<clipPath id="clip0_60_7">
<rect width="38.2371" height="39.924" fill="white" transform="translate(289.903 46.4138) rotate(-24.8172)"/>
</clipPath>
</defs>
</svg>
