<svg width="92" height="93" viewBox="0 0 92 93" fill="none" xmlns="http://www.w3.org/2000/svg">
<g clip-path="url(#clip0_3_64)">
<path d="M28.4894 32.4026C27.2173 32.9745 26.0454 33.7481 25.0151 34.6962L24.9553 34.7238L20.8607 38.5264C18.5138 40.6898 16.9276 43.5927 16.3346 46.8095C15.7417 50.0262 16.1731 53.3878 17.5657 56.4013L22.4828 67.0345C26.0728 74.7979 35.0676 78.3264 42.5029 74.888L61.6092 66.0527C63.9855 65.0199 65.5956 62.5275 65.4083 59.7125C65.2867 57.9256 64.4653 56.367 63.2532 55.209C64.1741 53.983 64.6299 52.4456 64.5392 50.8717C64.476 49.985 64.2395 49.1146 63.8438 48.3129C63.4481 47.5112 62.9015 46.7948 62.2368 46.2066L69.7705 42.7228C72.9433 41.2556 74.2949 37.3183 72.763 34.0055C71.2311 30.6927 67.3557 29.1725 64.1829 30.6396L61.23 32.0052L61.8967 31.3913C64.4883 29.0268 64.6478 24.7999 62.262 22.0555C59.8761 19.3112 55.7582 19.008 53.1666 21.3725L39.3074 34.1224C38.9676 33.7777 38.602 33.4612 38.2142 33.1759C36.4713 31.9383 33.6393 30.9378 30.2637 31.8095C29.6385 31.9764 29.0284 32.1607 28.4894 32.4026V32.4026ZM56.8415 24.2566C57.6337 23.9953 58.5274 24.2421 59.1389 24.9518C59.9572 25.891 59.8629 27.2717 58.976 28.0827L47.6978 38.3386L49.407 40.2983L50.193 41.998L66.0455 34.6674C67.1371 34.1625 68.3784 34.6495 68.9055 35.7893C69.4326 36.9291 68.9997 38.1902 67.908 38.6951L55.1897 44.5763L49.1666 44.8413C48.3196 44.8657 47.4918 45.0664 46.733 45.4314L41.8963 37.6603L56.0872 24.6811C56.3047 24.4851 56.5618 24.3404 56.8415 24.2566ZM30.3499 36.5828C30.7183 36.4125 31.1021 36.235 31.4646 36.1431C33.7112 35.5638 34.9465 36.139 35.8588 36.7854C36.7701 37.4347 37.0973 38.0461 37.0973 38.0461L37.1559 38.1729L44.7803 50.3824C44.8258 50.4393 44.8744 50.4935 44.9257 50.545C45.0991 50.7658 45.2289 51.0186 45.3074 51.2885C45.3859 51.5584 45.4116 51.84 45.3828 52.1167C45.3541 52.3934 45.2716 52.6595 45.1401 52.8994C45.0086 53.1392 44.8309 53.348 44.6174 53.5134C44.0651 53.9595 43.7087 54.0191 43.2944 53.9736C42.8791 53.9261 42.2871 53.6939 41.5718 52.9368L34.6498 44.2966C34.4393 44.0377 34.1762 43.8291 33.88 43.6865C33.5839 43.544 33.2624 43.4711 32.9396 43.4734C32.6169 43.4757 32.3012 43.5531 32.0163 43.6998C31.7313 43.8465 31.4845 44.0587 31.2942 44.3206L28.9439 47.6221C28.7806 47.8525 28.6644 48.1153 28.6018 48.3955C28.5393 48.6756 28.5317 48.9675 28.5795 49.2544C28.6273 49.5414 28.7296 49.8176 28.8804 50.0672C29.0312 50.3168 29.2275 50.5348 29.4582 50.7088C29.6874 50.8838 29.9466 51.0117 30.2208 51.085C30.4949 51.1584 30.7787 51.1758 31.0558 51.1362C31.3329 51.0966 31.5979 51.0009 31.8356 50.8545C32.0732 50.7081 32.2788 50.5139 32.4406 50.283L33.1433 49.2711L38.4487 55.8331C38.494 55.8892 38.5423 55.9428 38.5932 55.9936C39.8347 57.3115 41.3022 58.1509 42.9067 58.355C44.2174 58.5213 45.5124 58.2183 46.6312 57.5494C46.2845 58.4553 46.1381 59.4351 46.2025 60.4194C46.2836 61.7058 46.7313 62.9515 47.4896 64.0006C48.2479 65.0496 49.2831 65.8553 50.4655 66.3169L40.6404 70.8603C35.292 73.3336 28.9227 70.8351 26.3403 65.2506L21.4223 54.6155C19.3735 50.185 20.3315 45.0168 23.7804 41.8379L27.9038 38.0977C28.2367 37.7898 29.2505 37.0912 30.3499 36.5828V36.5828ZM48.987 49.3538C49.1409 49.312 49.2648 49.2254 49.4373 49.2238L58.0073 48.9276C59.2116 48.884 60.2031 49.7626 60.2852 51.0031C60.3662 52.2466 59.4822 53.2665 58.277 53.308L49.7368 53.6687C49.6141 53.6766 49.524 53.6034 49.4082 53.5909C49.7159 52.1839 49.5681 50.6972 48.987 49.3538V49.3538ZM51.623 58.2184C51.8776 58.1007 52.1607 57.9991 52.4648 57.9831L55.5496 57.8547L58.5766 57.7529L58.8474 57.7059C60.0518 57.6623 61.0731 58.6054 61.1552 59.8459C61.1884 60.2663 61.1014 60.6835 60.9049 61.0459C60.7084 61.4083 60.411 61.7 60.0495 61.885L59.9878 61.9135C59.7268 62.0486 59.4408 62.1286 59.1461 62.1488L52.7345 62.3636C52.4507 62.3769 52.1654 62.3318 51.8951 62.2311C51.6248 62.1303 51.3749 61.9758 51.1601 61.7766C50.9453 61.5774 50.7698 61.3374 50.6439 61.0708C50.518 60.8042 50.4442 60.5162 50.4268 60.2236C50.4083 59.9395 50.4456 59.6564 50.5366 59.3913C50.6276 59.1262 50.7705 58.8844 50.9565 58.6806C51.1435 58.4795 51.3705 58.3221 51.623 58.2184V58.2184Z" fill="#546384"/>
</g>
<defs>
<clipPath id="clip0_3_64">
<rect width="68" height="71" fill="white" transform="translate(0 28.5413) rotate(-24.8172)"/>
</clipPath>
</defs>
</svg>
