<svg width="223" height="156" viewBox="0 0 223 156" fill="none" xmlns="http://www.w3.org/2000/svg">
<g filter="url(#filter0_d_3_33)">
<path d="M5.8 36V7.2H17.7C17.98 7.2 18.34 7.21333 18.78 7.24C19.22 7.25333 19.6267 7.29333 20 7.36C21.6667 7.61333 23.04 8.16666 24.12 9.02C25.2133 9.87333 26.02 10.9533 26.54 12.26C27.0733 13.5533 27.34 14.9933 27.34 16.58C27.34 18.9267 26.7467 20.9467 25.56 22.64C24.3733 24.32 22.5533 25.36 20.1 25.76L18.04 25.94H10.62V36H5.8ZM22.34 36L16.66 24.28L21.56 23.2L27.8 36H22.34ZM10.62 21.44H17.5C17.7667 21.44 18.0667 21.4267 18.4 21.4C18.7333 21.3733 19.04 21.32 19.32 21.24C20.12 21.04 20.7467 20.6867 21.2 20.18C21.6667 19.6733 21.9933 19.1 22.18 18.46C22.38 17.82 22.48 17.1933 22.48 16.58C22.48 15.9667 22.38 15.34 22.18 14.7C21.9933 14.0467 21.6667 13.4667 21.2 12.96C20.7467 12.4533 20.12 12.1 19.32 11.9C19.04 11.82 18.7333 11.7733 18.4 11.76C18.0667 11.7333 17.7667 11.72 17.5 11.72H10.62V21.44ZM46.3863 36.6C43.5063 36.6 41.0396 35.9733 38.9863 34.72C36.9329 33.4533 35.3529 31.6933 34.2463 29.44C33.1529 27.1867 32.6063 24.5733 32.6063 21.6C32.6063 18.6267 33.1529 16.0133 34.2463 13.76C35.3529 11.5067 36.9329 9.75333 38.9863 8.5C41.0396 7.23333 43.5063 6.6 46.3863 6.6C49.2663 6.6 51.7329 7.23333 53.7863 8.5C55.8529 9.75333 57.4329 11.5067 58.5263 13.76C59.6329 16.0133 60.1863 18.6267 60.1863 21.6C60.1863 24.5733 59.6329 27.1867 58.5263 29.44C57.4329 31.6933 55.8529 33.4533 53.7863 34.72C51.7329 35.9733 49.2663 36.6 46.3863 36.6ZM46.3863 32.06C48.3196 32.0733 49.9263 31.6467 51.2063 30.78C52.4996 29.9133 53.4663 28.6933 54.1063 27.12C54.7596 25.5467 55.0863 23.7067 55.0863 21.6C55.0863 19.4933 54.7596 17.6667 54.1063 16.12C53.4663 14.56 52.4996 13.3467 51.2063 12.48C49.9263 11.6133 48.3196 11.1667 46.3863 11.14C44.4529 11.1267 42.8463 11.5533 41.5663 12.42C40.2863 13.2867 39.3196 14.5067 38.6663 16.08C38.0263 17.6533 37.7063 19.4933 37.7063 21.6C37.7063 23.7067 38.0263 25.54 38.6663 27.1C39.3063 28.6467 40.2663 29.8533 41.5463 30.72C42.8396 31.5867 44.4529 32.0333 46.3863 32.06ZM78.3472 36.6C75.4672 36.6 73.0005 35.9733 70.9472 34.72C68.8939 33.4533 67.3139 31.6933 66.2072 29.44C65.1139 27.1867 64.5672 24.5733 64.5672 21.6C64.5672 18.6267 65.1139 16.0133 66.2072 13.76C67.3139 11.5067 68.8939 9.75333 70.9472 8.5C73.0005 7.23333 75.4672 6.6 78.3472 6.6C81.6672 6.6 84.4339 7.43333 86.6472 9.1C88.8605 10.7533 90.4139 12.9867 91.3072 15.8L86.4472 17.14C85.8872 15.26 84.9339 13.7933 83.5872 12.74C82.2405 11.6733 80.4939 11.14 78.3472 11.14C76.4139 11.14 74.8005 11.5733 73.5072 12.44C72.2272 13.3067 71.2605 14.5267 70.6072 16.1C69.9672 17.66 69.6405 19.4933 69.6272 21.6C69.6272 23.7067 69.9472 25.5467 70.5872 27.12C71.2405 28.68 72.2139 29.8933 73.5072 30.76C74.8005 31.6267 76.4139 32.06 78.3472 32.06C80.4939 32.06 82.2405 31.5267 83.5872 30.46C84.9339 29.3933 85.8872 27.9267 86.4472 26.06L91.3072 27.4C90.4139 30.2133 88.8605 32.4533 86.6472 34.12C84.4339 35.7733 81.6672 36.6 78.3472 36.6ZM97.6984 36V7.2H102.518V20.56L114.018 7.2H119.938L107.558 21.32L120.778 36H114.658L102.518 22.56V36H97.6984Z" fill="white"/>
</g>
<g filter="url(#filter1_d_3_33)">
<path d="M5.8 86V57.2H17.7C17.98 57.2 18.34 57.2133 18.78 57.24C19.22 57.2533 19.6267 57.2933 20 57.36C21.6667 57.6133 23.04 58.1667 24.12 59.02C25.2133 59.8733 26.02 60.9533 26.54 62.26C27.0733 63.5533 27.34 64.9933 27.34 66.58C27.34 68.1533 27.0733 69.5933 26.54 70.9C26.0067 72.1933 25.1933 73.2667 24.1 74.12C23.02 74.9733 21.6533 75.5267 20 75.78C19.6267 75.8333 19.2133 75.8733 18.76 75.9C18.32 75.9267 17.9667 75.94 17.7 75.94H10.62V86H5.8ZM10.62 71.44H17.5C17.7667 71.44 18.0667 71.4267 18.4 71.4C18.7333 71.3733 19.04 71.32 19.32 71.24C20.12 71.04 20.7467 70.6867 21.2 70.18C21.6667 69.6733 21.9933 69.1 22.18 68.46C22.38 67.82 22.48 67.1933 22.48 66.58C22.48 65.9667 22.38 65.34 22.18 64.7C21.9933 64.0467 21.6667 63.4667 21.2 62.96C20.7467 62.4533 20.12 62.1 19.32 61.9C19.04 61.82 18.7333 61.7733 18.4 61.76C18.0667 61.7333 17.7667 61.72 17.5 61.72H10.62V71.44ZM29.3547 86L38.4347 57.2H45.4947L54.5747 86H49.6147L41.3747 60.16H42.4547L34.3147 86H29.3547ZM34.4147 79.76V75.26H49.5347V79.76H34.4147ZM60.1906 86V57.2H72.0906C72.3706 57.2 72.7306 57.2133 73.1706 57.24C73.6106 57.2533 74.0173 57.2933 74.3906 57.36C76.0573 57.6133 77.4306 58.1667 78.5106 59.02C79.604 59.8733 80.4106 60.9533 80.9306 62.26C81.464 63.5533 81.7306 64.9933 81.7306 66.58C81.7306 68.1533 81.464 69.5933 80.9306 70.9C80.3973 72.1933 79.584 73.2667 78.4906 74.12C77.4106 74.9733 76.044 75.5267 74.3906 75.78C74.0173 75.8333 73.604 75.8733 73.1506 75.9C72.7106 75.9267 72.3573 75.94 72.0906 75.94H65.0106V86H60.1906ZM65.0106 71.44H71.8906C72.1573 71.44 72.4573 71.4267 72.7906 71.4C73.124 71.3733 73.4306 71.32 73.7106 71.24C74.5106 71.04 75.1373 70.6867 75.5906 70.18C76.0573 69.6733 76.384 69.1 76.5706 68.46C76.7706 67.82 76.8706 67.1933 76.8706 66.58C76.8706 65.9667 76.7706 65.34 76.5706 64.7C76.384 64.0467 76.0573 63.4667 75.5906 62.96C75.1373 62.4533 74.5106 62.1 73.7106 61.9C73.4306 61.82 73.124 61.7733 72.7906 61.76C72.4573 61.7333 72.1573 61.72 71.8906 61.72H65.0106V71.44ZM87.7375 86V57.2H106.338V61.72H92.5575V68.82H103.938V73.34H92.5575V81.48H106.338V86H87.7375ZM113.136 86V57.2H125.036C125.316 57.2 125.676 57.2133 126.116 57.24C126.556 57.2533 126.963 57.2933 127.336 57.36C129.003 57.6133 130.376 58.1667 131.456 59.02C132.549 59.8733 133.356 60.9533 133.876 62.26C134.409 63.5533 134.676 64.9933 134.676 66.58C134.676 68.9267 134.083 70.9467 132.896 72.64C131.709 74.32 129.889 75.36 127.436 75.76L125.376 75.94H117.956V86H113.136ZM129.676 86L123.996 74.28L128.896 73.2L135.136 86H129.676ZM117.956 71.44H124.836C125.103 71.44 125.403 71.4267 125.736 71.4C126.069 71.3733 126.376 71.32 126.656 71.24C127.456 71.04 128.083 70.6867 128.536 70.18C129.003 69.6733 129.329 69.1 129.516 68.46C129.716 67.82 129.816 67.1933 129.816 66.58C129.816 65.9667 129.716 65.34 129.516 64.7C129.329 64.0467 129.003 63.4667 128.536 62.96C128.083 62.4533 127.456 62.1 126.656 61.9C126.376 61.82 126.069 61.7733 125.736 61.76C125.403 61.7333 125.103 61.72 124.836 61.72H117.956V71.44Z" fill="white"/>
</g>
<g filter="url(#filter2_d_3_33)">
<path d="M16.46 144.6C14.3533 144.6 12.4533 144.233 10.76 143.5C9.08 142.767 7.69333 141.72 6.6 140.36C5.52 138.987 4.83333 137.36 4.54 135.48L9.54 134.72C9.96667 136.427 10.84 137.747 12.16 138.68C13.4933 139.613 15.0267 140.08 16.76 140.08C17.7867 140.08 18.7533 139.92 19.66 139.6C20.5667 139.28 21.3 138.813 21.86 138.2C22.4333 137.587 22.72 136.833 22.72 135.94C22.72 135.54 22.6533 135.173 22.52 134.84C22.3867 134.493 22.1867 134.187 21.92 133.92C21.6667 133.653 21.3333 133.413 20.92 133.2C20.52 132.973 20.0533 132.78 19.52 132.62L12.08 130.42C11.44 130.233 10.7467 129.987 10 129.68C9.26667 129.36 8.56667 128.927 7.9 128.38C7.24667 127.82 6.70667 127.113 6.28 126.26C5.86667 125.393 5.66 124.327 5.66 123.06C5.66 121.207 6.12667 119.653 7.06 118.4C8.00667 117.133 9.27333 116.187 10.86 115.56C12.46 114.933 14.2333 114.627 16.18 114.64C18.1533 114.653 19.9133 114.993 21.46 115.66C23.0067 116.313 24.3 117.267 25.34 118.52C26.38 119.773 27.1133 121.287 27.54 123.06L22.36 123.96C22.1467 122.947 21.7333 122.087 21.12 121.38C20.52 120.66 19.78 120.113 18.9 119.74C18.0333 119.367 17.1067 119.167 16.12 119.14C15.16 119.127 14.2667 119.273 13.44 119.58C12.6267 119.873 11.9667 120.3 11.46 120.86C10.9667 121.42 10.72 122.073 10.72 122.82C10.72 123.527 10.9333 124.107 11.36 124.56C11.7867 125 12.3133 125.353 12.94 125.62C13.58 125.873 14.2267 126.087 14.88 126.26L20.04 127.7C20.7467 127.887 21.54 128.14 22.42 128.46C23.3 128.78 24.1467 129.227 24.96 129.8C25.7733 130.373 26.44 131.127 26.96 132.06C27.4933 132.993 27.76 134.18 27.76 135.62C27.76 137.113 27.4467 138.427 26.82 139.56C26.2067 140.68 25.3733 141.613 24.32 142.36C23.2667 143.107 22.06 143.667 20.7 144.04C19.3533 144.413 17.94 144.6 16.46 144.6ZM46.2691 144.6C43.3891 144.6 40.9224 143.973 38.8691 142.72C36.8157 141.453 35.2357 139.693 34.1291 137.44C33.0357 135.187 32.4891 132.573 32.4891 129.6C32.4891 126.627 33.0357 124.013 34.1291 121.76C35.2357 119.507 36.8157 117.753 38.8691 116.5C40.9224 115.233 43.3891 114.6 46.2691 114.6C49.5891 114.6 52.3557 115.433 54.5691 117.1C56.7824 118.753 58.3357 120.987 59.2291 123.8L54.3691 125.14C53.8091 123.26 52.8557 121.793 51.5091 120.74C50.1624 119.673 48.4157 119.14 46.2691 119.14C44.3357 119.14 42.7224 119.573 41.4291 120.44C40.1491 121.307 39.1824 122.527 38.5291 124.1C37.8891 125.66 37.5624 127.493 37.5491 129.6C37.5491 131.707 37.8691 133.547 38.5091 135.12C39.1624 136.68 40.1357 137.893 41.4291 138.76C42.7224 139.627 44.3357 140.06 46.2691 140.06C48.4157 140.06 50.1624 139.527 51.5091 138.46C52.8557 137.393 53.8091 135.927 54.3691 134.06L59.2291 135.4C58.3357 138.213 56.7824 140.453 54.5691 142.12C52.3557 143.773 49.5891 144.6 46.2691 144.6ZM66.0203 144V115.2H70.8403V144H66.0203ZM89.4913 144.6C87.3846 144.6 85.4846 144.233 83.7913 143.5C82.1113 142.767 80.7246 141.72 79.6313 140.36C78.5513 138.987 77.8646 137.36 77.5713 135.48L82.5713 134.72C82.9979 136.427 83.8713 137.747 85.1913 138.68C86.5246 139.613 88.0579 140.08 89.7913 140.08C90.8179 140.08 91.7846 139.92 92.6913 139.6C93.5979 139.28 94.3313 138.813 94.8913 138.2C95.4646 137.587 95.7513 136.833 95.7513 135.94C95.7513 135.54 95.6846 135.173 95.5513 134.84C95.4179 134.493 95.2179 134.187 94.9513 133.92C94.6979 133.653 94.3646 133.413 93.9513 133.2C93.5513 132.973 93.0846 132.78 92.5513 132.62L85.1113 130.42C84.4713 130.233 83.7779 129.987 83.0313 129.68C82.2979 129.36 81.5979 128.927 80.9313 128.38C80.2779 127.82 79.7379 127.113 79.3113 126.26C78.8979 125.393 78.6913 124.327 78.6913 123.06C78.6913 121.207 79.1579 119.653 80.0913 118.4C81.0379 117.133 82.3046 116.187 83.8913 115.56C85.4913 114.933 87.2646 114.627 89.2113 114.64C91.1846 114.653 92.9446 114.993 94.4913 115.66C96.0379 116.313 97.3313 117.267 98.3713 118.52C99.4113 119.773 100.145 121.287 100.571 123.06L95.3913 123.96C95.1779 122.947 94.7646 122.087 94.1513 121.38C93.5513 120.66 92.8113 120.113 91.9313 119.74C91.0646 119.367 90.1379 119.167 89.1513 119.14C88.1913 119.127 87.2979 119.273 86.4713 119.58C85.6579 119.873 84.9979 120.3 84.4913 120.86C83.9979 121.42 83.7513 122.073 83.7513 122.82C83.7513 123.527 83.9646 124.107 84.3913 124.56C84.8179 125 85.3446 125.353 85.9713 125.62C86.6113 125.873 87.2579 126.087 87.9113 126.26L93.0713 127.7C93.7779 127.887 94.5713 128.14 95.4513 128.46C96.3313 128.78 97.1779 129.227 97.9913 129.8C98.8046 130.373 99.4713 131.127 99.9913 132.06C100.525 132.993 100.791 134.18 100.791 135.62C100.791 137.113 100.478 138.427 99.8513 139.56C99.2379 140.68 98.4046 141.613 97.3513 142.36C96.2979 143.107 95.0913 143.667 93.7313 144.04C92.3846 144.413 90.9713 144.6 89.4913 144.6ZM118.366 144.6C116.26 144.6 114.36 144.233 112.666 143.5C110.986 142.767 109.6 141.72 108.506 140.36C107.426 138.987 106.74 137.36 106.446 135.48L111.446 134.72C111.873 136.427 112.746 137.747 114.066 138.68C115.4 139.613 116.933 140.08 118.666 140.08C119.693 140.08 120.66 139.92 121.566 139.6C122.473 139.28 123.206 138.813 123.766 138.2C124.34 137.587 124.626 136.833 124.626 135.94C124.626 135.54 124.56 135.173 124.426 134.84C124.293 134.493 124.093 134.187 123.826 133.92C123.573 133.653 123.24 133.413 122.826 133.2C122.426 132.973 121.96 132.78 121.426 132.62L113.986 130.42C113.346 130.233 112.653 129.987 111.906 129.68C111.173 129.36 110.473 128.927 109.806 128.38C109.153 127.82 108.613 127.113 108.186 126.26C107.773 125.393 107.566 124.327 107.566 123.06C107.566 121.207 108.033 119.653 108.966 118.4C109.913 117.133 111.18 116.187 112.766 115.56C114.366 114.933 116.14 114.627 118.086 114.64C120.06 114.653 121.82 114.993 123.366 115.66C124.913 116.313 126.206 117.267 127.246 118.52C128.286 119.773 129.02 121.287 129.446 123.06L124.266 123.96C124.053 122.947 123.64 122.087 123.026 121.38C122.426 120.66 121.686 120.113 120.806 119.74C119.94 119.367 119.013 119.167 118.026 119.14C117.066 119.127 116.173 119.273 115.346 119.58C114.533 119.873 113.873 120.3 113.366 120.86C112.873 121.42 112.626 122.073 112.626 122.82C112.626 123.527 112.84 124.107 113.266 124.56C113.693 125 114.22 125.353 114.846 125.62C115.486 125.873 116.133 126.087 116.786 126.26L121.946 127.7C122.653 127.887 123.446 128.14 124.326 128.46C125.206 128.78 126.053 129.227 126.866 129.8C127.68 130.373 128.346 131.127 128.866 132.06C129.4 132.993 129.666 134.18 129.666 135.62C129.666 137.113 129.353 138.427 128.726 139.56C128.113 140.68 127.28 141.613 126.226 142.36C125.173 143.107 123.966 143.667 122.606 144.04C121.26 144.413 119.846 144.6 118.366 144.6ZM148.175 144.6C145.295 144.6 142.829 143.973 140.775 142.72C138.722 141.453 137.142 139.693 136.035 137.44C134.942 135.187 134.395 132.573 134.395 129.6C134.395 126.627 134.942 124.013 136.035 121.76C137.142 119.507 138.722 117.753 140.775 116.5C142.829 115.233 145.295 114.6 148.175 114.6C151.055 114.6 153.522 115.233 155.575 116.5C157.642 117.753 159.222 119.507 160.315 121.76C161.422 124.013 161.975 126.627 161.975 129.6C161.975 132.573 161.422 135.187 160.315 137.44C159.222 139.693 157.642 141.453 155.575 142.72C153.522 143.973 151.055 144.6 148.175 144.6ZM148.175 140.06C150.109 140.073 151.715 139.647 152.995 138.78C154.289 137.913 155.255 136.693 155.895 135.12C156.549 133.547 156.875 131.707 156.875 129.6C156.875 127.493 156.549 125.667 155.895 124.12C155.255 122.56 154.289 121.347 152.995 120.48C151.715 119.613 150.109 119.167 148.175 119.14C146.242 119.127 144.635 119.553 143.355 120.42C142.075 121.287 141.109 122.507 140.455 124.08C139.815 125.653 139.495 127.493 139.495 129.6C139.495 131.707 139.815 133.54 140.455 135.1C141.095 136.647 142.055 137.853 143.335 138.72C144.629 139.587 146.242 140.033 148.175 140.06ZM167.956 144V115.2H179.856C180.136 115.2 180.496 115.213 180.936 115.24C181.376 115.253 181.783 115.293 182.156 115.36C183.823 115.613 185.196 116.167 186.276 117.02C187.37 117.873 188.176 118.953 188.696 120.26C189.23 121.553 189.496 122.993 189.496 124.58C189.496 126.927 188.903 128.947 187.716 130.64C186.53 132.32 184.71 133.36 182.256 133.76L180.196 133.94H172.776V144H167.956ZM184.496 144L178.816 132.28L183.716 131.2L189.956 144H184.496ZM172.776 129.44H179.656C179.923 129.44 180.223 129.427 180.556 129.4C180.89 129.373 181.196 129.32 181.476 129.24C182.276 129.04 182.903 128.687 183.356 128.18C183.823 127.673 184.15 127.1 184.336 126.46C184.536 125.82 184.636 125.193 184.636 124.58C184.636 123.967 184.536 123.34 184.336 122.7C184.15 122.047 183.823 121.467 183.356 120.96C182.903 120.453 182.276 120.1 181.476 119.9C181.196 119.82 180.89 119.773 180.556 119.76C180.223 119.733 179.923 119.72 179.656 119.72H172.776V129.44ZM207.023 144.6C204.916 144.6 203.016 144.233 201.323 143.5C199.643 142.767 198.256 141.72 197.163 140.36C196.083 138.987 195.396 137.36 195.103 135.48L200.103 134.72C200.529 136.427 201.403 137.747 202.723 138.68C204.056 139.613 205.589 140.08 207.323 140.08C208.349 140.08 209.316 139.92 210.223 139.6C211.129 139.28 211.863 138.813 212.423 138.2C212.996 137.587 213.283 136.833 213.283 135.94C213.283 135.54 213.216 135.173 213.083 134.84C212.949 134.493 212.749 134.187 212.483 133.92C212.229 133.653 211.896 133.413 211.483 133.2C211.083 132.973 210.616 132.78 210.083 132.62L202.643 130.42C202.003 130.233 201.309 129.987 200.563 129.68C199.829 129.36 199.129 128.927 198.463 128.38C197.809 127.82 197.269 127.113 196.843 126.26C196.429 125.393 196.223 124.327 196.223 123.06C196.223 121.207 196.689 119.653 197.623 118.4C198.569 117.133 199.836 116.187 201.423 115.56C203.023 114.933 204.796 114.627 206.743 114.64C208.716 114.653 210.476 114.993 212.023 115.66C213.569 116.313 214.863 117.267 215.903 118.52C216.943 119.773 217.676 121.287 218.103 123.06L212.923 123.96C212.709 122.947 212.296 122.087 211.683 121.38C211.083 120.66 210.343 120.113 209.463 119.74C208.596 119.367 207.669 119.167 206.683 119.14C205.723 119.127 204.829 119.273 204.003 119.58C203.189 119.873 202.529 120.3 202.023 120.86C201.529 121.42 201.283 122.073 201.283 122.82C201.283 123.527 201.496 124.107 201.923 124.56C202.349 125 202.876 125.353 203.503 125.62C204.143 125.873 204.789 126.087 205.443 126.26L210.603 127.7C211.309 127.887 212.103 128.14 212.983 128.46C213.863 128.78 214.709 129.227 215.523 129.8C216.336 130.373 217.003 131.127 217.523 132.06C218.056 132.993 218.323 134.18 218.323 135.62C218.323 137.113 218.009 138.427 217.383 139.56C216.769 140.68 215.936 141.613 214.883 142.36C213.829 143.107 212.623 143.667 211.263 144.04C209.916 144.413 208.503 144.6 207.023 144.6Z" fill="white"/>
</g>
<defs>
<filter id="filter0_d_3_33" x="1.79999" y="6.60001" width="122.978" height="41" filterUnits="userSpaceOnUse" color-interpolation-filters="sRGB">
<feFlood flood-opacity="0" result="BackgroundImageFix"/>
<feColorMatrix in="SourceAlpha" type="matrix" values="0 0 0 0 0 0 0 0 0 0 0 0 0 0 0 0 0 0 127 0" result="hardAlpha"/>
<feOffset dy="7"/>
<feGaussianBlur stdDeviation="2"/>
<feComposite in2="hardAlpha" operator="out"/>
<feColorMatrix type="matrix" values="0 0 0 0 0.315208 0 0 0 0 0.349518 0 0 0 0 0.425 0 0 0 1 0"/>
<feBlend mode="normal" in2="BackgroundImageFix" result="effect1_dropShadow_3_33"/>
<feBlend mode="normal" in="SourceGraphic" in2="effect1_dropShadow_3_33" result="shape"/>
</filter>
<filter id="filter1_d_3_33" x="1.79999" y="57.2" width="137.336" height="39.8" filterUnits="userSpaceOnUse" color-interpolation-filters="sRGB">
<feFlood flood-opacity="0" result="BackgroundImageFix"/>
<feColorMatrix in="SourceAlpha" type="matrix" values="0 0 0 0 0 0 0 0 0 0 0 0 0 0 0 0 0 0 127 0" result="hardAlpha"/>
<feOffset dy="7"/>
<feGaussianBlur stdDeviation="2"/>
<feComposite in2="hardAlpha" operator="out"/>
<feColorMatrix type="matrix" values="0 0 0 0 0.315208 0 0 0 0 0.349518 0 0 0 0 0.425 0 0 0 1 0"/>
<feBlend mode="normal" in2="BackgroundImageFix" result="effect1_dropShadow_3_33"/>
<feBlend mode="normal" in="SourceGraphic" in2="effect1_dropShadow_3_33" result="shape"/>
</filter>
<filter id="filter2_d_3_33" x="0.540009" y="114.6" width="221.782" height="41" filterUnits="userSpaceOnUse" color-interpolation-filters="sRGB">
<feFlood flood-opacity="0" result="BackgroundImageFix"/>
<feColorMatrix in="SourceAlpha" type="matrix" values="0 0 0 0 0 0 0 0 0 0 0 0 0 0 0 0 0 0 127 0" result="hardAlpha"/>
<feOffset dy="7"/>
<feGaussianBlur stdDeviation="2"/>
<feComposite in2="hardAlpha" operator="out"/>
<feColorMatrix type="matrix" values="0 0 0 0 0.315208 0 0 0 0 0.349518 0 0 0 0 0.425 0 0 0 1 0"/>
<feBlend mode="normal" in2="BackgroundImageFix" result="effect1_dropShadow_3_33"/>
<feBlend mode="normal" in="SourceGraphic" in2="effect1_dropShadow_3_33" result="shape"/>
</filter>
</defs>
</svg>
